<?xml version="1.0" standalone="no"?>
<!DOCTYPE svg PUBLIC "-//W3C//DTD SVG 20010904//EN"
  "http://www.w3.org/TR/2001/REC-SVG-20010904/DTD/svg10.dtd">
<svg version="1.0" xmlns="http://www.w3.org/2000/svg"
     width="992.000000pt" height="453.000000pt" viewBox="0 0 992.000000 453.000000"
     preserveAspectRatio="xMidYMid meet">
  <metadata>
    Created by potrace 1.14, written by Peter Selinger 2001-2017
  </metadata>
  <g transform="translate(0.000000,453.000000) scale(0.100000,-0.100000)"
     fill="#000000" stroke="none">
    <path d="M9404 4480 c-184 -37 -318 -233 -285 -417 7 -35 35 -104 70 -173 101
-197 156 -372 198 -625 22 -137 25 -578 5 -720 -22 -154 -71 -377 -107 -492
-41 -131 -91 -206 -173 -262 -168 -114 -322 -388 -355 -628 -27 -204 57 -473
172 -550 46 -31 64 -29 112 14 105 95 253 391 294 590 27 128 18 433 -14 490
-12 22 -151 -114 -215 -211 -135 -203 -204 -417 -207 -645 -1 -76 -2 -81 -10
-41 -31 180 17 453 117 652 66 133 174 262 261 313 24 14 51 54 107 154 237
433 399 924 462 1406 27 200 25 542 -4 705 -12 69 -31 154 -42 189 -38 128
-126 215 -245 246 -65 16 -79 17 -141 5z"/>
    <path d="M2595 3639 c-237 -18 -491 -58 -1069 -170 -689 -133 -888 -162 -1126
-163 -231 -1 -299 27 -332 135 -13 46 -30 58 -54 38 -27 -22 -12 -138 26 -216
53 -107 151 -168 320 -199 92 -16 418 -18 595 -3 70 6 128 9 131 7 4 -5 -75
-640 -80 -645 -2 -2 -105 -14 -229 -26 -124 -12 -229 -25 -233 -29 -3 -4 -1
-21 6 -38 10 -23 10 -34 1 -43 -45 -45 48 -208 129 -226 20 -4 91 -4 158 2 68
5 125 7 127 5 3 -2 -4 -96 -15 -209 -52 -541 -63 -797 -41 -889 20 -80 67
-175 103 -205 24 -20 39 -25 72 -23 36 3 43 8 63 43 23 40 36 95 48 192 l7 52
-40 25 c-58 37 -66 69 -59 247 11 270 49 784 58 790 20 12 686 71 963 85 134
7 139 6 132 -12 -81 -198 -117 -431 -96 -609 32 -266 144 -408 325 -409 87 -1
131 19 200 89 116 118 199 353 209 592 l4 93 43 33 c42 31 92 103 84 118 -3 3
-38 9 -80 11 -64 4 -83 10 -134 42 l-60 37 -70 -36 -71 -35 30 -43 c49 -70 63
-148 57 -322 -7 -221 -59 -391 -143 -464 -103 -91 -193 23 -210 264 -20 294
96 622 247 700 46 24 126 30 177 12 l42 -15 0 42 c0 48 -28 112 -61 143 -59
54 -176 70 -256 33 -54 -24 -133 -98 -174 -161 -17 -27 -32 -49 -34 -49 -2 0
-28 35 -58 78 -68 96 -88 114 -160 147 -103 48 -279 49 -676 5 -111 -13 -204
-20 -207 -17 -5 5 18 443 32 584 l5 61 52 7 c29 3 241 35 472 70 605 91 750
108 1070 120 154 6 256 -2 255 -20 0 -5 -13 -13 -29 -18 -43 -11 -48 -27 -18
-53 38 -32 85 -43 146 -33 182 29 249 92 202 191 -27 55 -93 146 -128 176 -44
37 -142 79 -223 95 -100 21 -278 27 -425 16z"/>
    <path d="M5615 3543 c-16 -2 -55 -11 -85 -20 l-55 -15 109 -25 c195 -44 208
-53 227 -158 19 -102 5 -259 -71 -820 -89 -654 -99 -940 -40 -1171 52 -204
174 -304 352 -292 100 8 183 52 279 147 164 165 288 412 434 864 32 97 59 176
60 175 1 -2 -2 -52 -7 -113 -13 -160 -4 -580 16 -692 33 -190 81 -301 162
-371 62 -55 124 -69 223 -48 93 20 162 57 234 129 l59 59 -6 -79 c-4 -43 -13
-177 -22 -298 -8 -121 -23 -319 -33 -440 -21 -251 -26 -230 68 -327 50 -53 77
-60 91 -24 5 13 14 140 19 282 61 1474 61 1477 81 1558 47 189 168 309 256
251 34 -22 70 -104 84 -190 l11 -70 -51 -44 c-137 -117 -227 -290 -251 -480
-22 -176 37 -243 171 -196 133 47 241 225 301 496 20 86 24 133 24 274 0 190
-13 255 -68 358 -96 182 -290 159 -423 -49 -19 -29 -34 -57 -34 -62 0 -4 -6
-16 -13 -26 -11 -15 -13 -4 -9 73 4 79 2 94 -14 112 -26 29 -146 82 -154 69
-4 -6 -10 -242 -13 -524 -4 -307 -10 -523 -16 -539 -22 -58 -166 -118 -245
-103 -82 16 -142 108 -180 275 -19 88 -21 126 -21 436 1 399 16 579 106 1219
17 120 28 225 24 233 -4 13 -17 15 -70 9 -90 -9 -114 -20 -131 -61 -8 -19 -32
-138 -54 -263 -69 -403 -149 -731 -255 -1047 -163 -490 -331 -738 -499 -740
-65 0 -107 29 -141 96 -46 89 -57 158 -62 394 -6 246 8 440 58 855 17 135 33
304 36 375 14 332 -93 511 -323 545 -70 10 -85 10 -139 3z m2435 -1897 c-28
-200 -94 -372 -158 -409 -48 -28 -55 -16 -49 77 9 138 72 284 172 403 48 57
52 49 35 -71z"/>
    <path d="M4591 3488 c-16 -40 -104 -833 -117 -1060 -4 -65 -9 -118 -11 -118
-3 0 -18 9 -33 20 -58 41 -167 43 -242 4 -18 -9 -59 -43 -90 -76 -145 -147
-251 -488 -235 -753 10 -153 39 -244 104 -315 49 -55 103 -80 174 -80 46 0 63
5 96 29 78 56 151 181 214 366 33 97 38 106 44 80 37 -162 92 -291 155 -359
25 -27 70 -60 107 -78 63 -31 66 -31 79 -13 12 17 11 22 -11 45 l-24 25 49
115 c28 63 91 242 142 397 51 156 95 280 98 275 4 -4 12 -36 19 -72 6 -36 22
-113 35 -172 l24 -107 -43 -26 c-60 -34 -121 -107 -142 -168 -12 -35 -18 -80
-18 -137 0 -75 4 -91 30 -138 42 -76 94 -106 179 -100 76 5 123 32 166 96 77
115 66 230 -66 707 -45 165 -54 306 -30 505 8 74 18 150 22 168 6 30 5 32 -22
32 -44 0 -132 -55 -149 -93 -8 -18 -21 -79 -30 -135 -42 -266 -220 -874 -305
-1041 l-17 -35 -16 30 c-62 120 -90 299 -90 579 0 325 32 636 123 1170 27 160
50 308 52 329 3 48 -20 69 -103 92 -33 9 -62 21 -65 25 -10 17 -45 9 -53 -13z
m-167 -1361 c19 -26 21 -41 19 -145 -4 -301 -139 -653 -275 -721 -83 -41 -120
13 -126 186 -7 180 29 355 100 498 92 182 220 265 282 182z m766 -768 c-14
-77 -75 -128 -129 -107 -79 30 -41 133 73 198 l51 30 6 -42 c3 -22 3 -58 -1
-79z"/>
    <path d="M3352 2434 c-250 -125 -407 -692 -288 -1044 54 -160 154 -243 291
-244 87 -1 131 19 200 89 116 118 199 353 209 592 l4 93 43 33 c42 31 92 103
84 118 -3 3 -38 9 -80 11 -64 4 -83 10 -134 42 l-60 37 -70 -36 -71 -35 30
-43 c49 -70 63 -148 57 -322 -7 -221 -59 -391 -143 -464 -103 -91 -193 23
-210 264 -20 294 96 622 247 700 46 24 126 30 177 12 l42 -15 0 42 c0 48 -28
112 -61 143 -64 59 -180 71 -267 27z"/>
  </g>
</svg>
